<svg xmlns="http://www.w3.org/2000/svg" version="1.1" id="Layer_1" viewBox="0 0 147.9 147.8" width="147.9" height="147.8"><metadata><rdf:RDF xmlns:rdf="http://www.w3.org/1999/02/22-rdf-syntax-ns#" xmlns:dc="http://purl.org/dc/elements/1.1/"><rdf:Description><dc:creator>RealFaviconGenerator</dc:creator><dc:source>https://realfavicongenerator.net</dc:source></rdf:Description></rdf:RDF></metadata><defs>
    <style>
      .st0 { fill: #150d30; }
      .st1 { fill: #2bc6ad; }
    </style>
  </defs><rect class="st1" x="0" y="0" width="147.9" height="147.8"></rect><path class="st0" d="M112.5,42.8c-1.3,0-2.5.4-4.3.9-4.9-5.7-12.8-10.9-23.6-13.7.4,2.4.2,4.4-.5,6.4,8.1,1.9,14.7,6.1,20.2,12.9-.4,4.6,3,9.6,8.2,9.7s7.7-4,7.5-8.8c-.4-4.2-3.5-7.4-7.5-7.4Z"></path><path class="st0" d="M56.7,83.9c-1.8-7.9-2.3-17.9-.9-27.9,1.1-6.2,4.3-13.5,8.9-17.8-1.2-1.7-2-4.7-1.4-8.1-13.1,3.1-27.3,13.2-33.3,32.7,2-.5,4.3,0,6.6,1,2.7-9.8,9.7-18.4,18.6-24-3.2,5-6.2,13.2-6.7,24.3-.5,14.9,4.5,35.5,13.5,48.9-9.3-3.2-20.5-11.8-25.5-28.8-2,.7-4.5.8-4.5.8-.8,0-2,0-2.7-.5,3.2,16,18,38.3,45.8,38.5,13.7,0,26.9-5.5,36.9-18.4,4.2.9,9-2.1,9-8-.2-4.1-3.5-7.6-7.5-7.7-4.6,0-8.5,3.5-8.3,7.9,0,1,.3,2.1.7,3.1-5.9,7.1-14.9,13.3-26.3,15-5.3.6-9.6-1.3-12.8-5-.4-.4-1.5-1.7-2.6-3.7-3.4-6.3-7.2-21.2-7.5-22.3Z"></path><path class="st0" d="M74,24.6c-4.1,0-7.7,3.3-7.7,7.6s3.3,7.7,7.7,7.7,7.5-3.3,7.5-7.4-3.4-7.7-7.5-7.7c0,0,0-.2,0-.2ZM32.4,66.2c-4.2,0-7.9,3.1-8,7.6-.1,4.2,3.2,7.8,7.7,7.9s7.8-3.2,7.8-7.6-3.2-7.9-7.5-7.9Z"></path></svg>